<?xml version="1.0" standalone="no"?>
<!DOCTYPE svg PUBLIC "-//W3C//DTD SVG 20010904//EN"
 "http://www.w3.org/TR/2001/REC-SVG-20010904/DTD/svg10.dtd">
<svg version="1.0" xmlns="http://www.w3.org/2000/svg"
 width="500.000000pt" height="500.000000pt" viewBox="0 0 500.000000 500.000000"
 preserveAspectRatio="xMidYMid meet">
<metadata>
Created by potrace 1.14, written by Peter Selinger 2001-2017
</metadata>
<g transform="translate(0.000000,500.000000) scale(0.100000,-0.100000)"
fill="#000000" stroke="none">
<path d="M0 2500 l0 -2500 2500 0 2500 0 0 2500 0 2500 -2500 0 -2500 0 0
-2500z m2835 1841 c551 -99 1017 -403 1326 -866 71 -105 187 -337 223 -445 84
-253 110 -431 103 -725 -4 -186 -9 -238 -30 -337 -96 -441 -335 -842 -665
-1119 -549 -459 -1265 -597 -1931 -373 -670 226 -1179 798 -1320 1484 -34 163
-44 292 -38 484 9 302 66 532 197 801 283 580 831 991 1460 1095 63 11 129 21
145 24 17 2 116 3 220 1 140 -2 221 -8 310 -24z"/>
<path d="M2232 4324 c-869 -118 -1558 -803 -1686 -1675 -20 -136 -21 -383 -1
-536 96 -738 611 -1366 1316 -1607 489 -167 1029 -133 1493 93 725 353 1167
1113 1107 1901 -34 433 -188 816 -462 1145 -272 325 -681 570 -1096 654 -211
43 -468 53 -671 25z m-22 -624 c0 -5 -7 -7 -15 -4 -9 4 -15 0 -15 -10 0 -9 6
-16 13 -17 10 0 10 -2 0 -6 -22 -8 -15 -36 7 -30 11 3 18 1 14 -4 -3 -5 -16
-9 -30 -9 -22 0 -24 4 -24 45 0 41 2 45 25 45 14 0 25 -4 25 -10z m74 1 c4 -5
-3 -7 -14 -4 -27 7 -26 -11 2 -29 14 -9 19 -20 15 -31 -7 -17 -47 -24 -47 -8
0 5 9 7 20 4 27 -7 26 11 -2 29 -14 9 -19 20 -15 31 7 18 32 23 41 8z m89 2
c-8 -2 -13 -22 -13 -44 0 -25 -5 -39 -13 -39 -9 0 -12 11 -9 36 3 24 0 39 -9
45 -9 6 -3 8 21 8 19 0 29 -3 23 -6z m95 -5 c28 -28 7 -78 -32 -78 -18 0 -21
6 -21 45 0 39 3 45 21 45 11 0 25 -5 32 -12z m130 -11 c2 -10 -4 -27 -13 -37
-16 -17 -15 -19 7 -23 17 -3 15 -5 -10 -6 l-33 -1 20 26 c25 31 27 54 6 54 -8
0 -15 -5 -15 -12 0 -6 -3 -9 -6 -5 -3 3 -3 11 1 17 10 16 39 8 43 -13z m87
-22 c0 -31 -4 -41 -19 -43 -32 -7 -50 50 -24 76 24 24 43 9 43 -33z m78 31 c3
-8 -3 -26 -14 -40 l-19 -25 22 -4 c16 -3 12 -5 -11 -6 l-34 -1 21 23 c23 24
30 57 12 57 -5 0 -10 -5 -10 -11 0 -5 -5 -7 -10 -4 -6 4 -8 11 -5 16 9 14 42
11 48 -5z m80 0 c3 -7 1 -18 -5 -24 -6 -6 -6 -12 1 -16 5 -4 8 -13 4 -21 -6
-18 -39 -20 -49 -4 -4 8 0 9 15 4 15 -5 21 -2 21 9 0 9 -6 16 -12 17 -10 0
-10 2 0 6 6 2 12 12 12 20 0 10 -6 13 -16 9 -8 -3 -12 -2 -9 4 9 15 32 12 38
-4z m1197 -596 c0 -7 -520 -10 -1540 -10 -1020 0 -1540 3 -1540 10 0 7 520 10
1540 10 1020 0 1540 -3 1540 -10z m-1345 -255 c117 -19 153 -97 90 -201 l-23
-38 31 -15 c51 -26 70 -62 70 -129 0 -125 -100 -241 -240 -277 -65 -17 -83
-18 -83 -7 0 4 26 13 58 20 81 17 160 67 199 125 60 90 66 168 17 226 -40 48
-55 47 -127 -8 -36 -27 -81 -55 -100 -62 -27 -10 -36 -19 -40 -43 -3 -17 -17
-94 -31 -170 -18 -95 -23 -142 -16 -146 15 -9 1 -40 -17 -40 -18 0 -15 34 21
235 14 72 27 144 30 160 2 17 18 93 35 170 39 180 39 177 1 164 -61 -22 -112
-111 -97 -169 3 -11 1 -20 -4 -20 -16 0 -22 51 -10 90 16 55 54 96 106 116 25
9 45 21 45 26 0 4 10 6 23 4 12 -3 40 -8 62 -11z m-995 -27 c0 -18 -16 -100
-35 -183 -19 -82 -35 -153 -35 -157 0 -4 12 -8 28 -8 35 0 72 -10 72 -19 0 -4
-25 -6 -55 -3 -50 4 -54 3 -59 -19 -60 -260 -69 -311 -54 -321 10 -5 9 -11 -4
-24 -16 -16 -18 -16 -24 -1 -5 14 40 267 62 345 6 21 4 22 -57 22 l-64 0 -40
-76 c-42 -81 -99 -154 -119 -154 -20 0 -52 41 -66 84 -15 48 -9 140 13 186 10
20 30 44 46 53 32 19 87 22 111 7 17 -11 10 -13 -42 -10 -20 1 -46 -4 -58 -10
-52 -28 -76 -158 -44 -239 30 -75 57 -60 133 73 24 42 41 79 38 82 -3 4 -35 9
-71 11 -36 3 -66 10 -66 15 0 6 31 7 78 3 l77 -7 79 153 c44 85 90 171 103
192 29 47 53 49 53 5z m203 0 c6 -21 -12 -78 -49 -148 -43 -82 -115 -393 -124
-532 0 -5 -5 -8 -11 -8 -18 0 -5 87 47 315 53 235 70 297 95 348 20 38 34 47
42 25z m1302 -27 c-3 -14 -26 -69 -50 -121 -34 -76 -102 -310 -90 -310 2 0 12
16 24 35 11 20 28 38 37 42 21 8 44 -21 44 -54 0 -13 4 -23 9 -23 12 0 71 67
99 112 28 45 58 57 81 33 15 -16 14 -17 -10 -11 -30 7 -41 -3 -64 -57 -19 -47
-5 -48 26 -2 27 39 43 40 47 4 9 -82 27 -89 71 -28 21 28 37 72 56 152 35 150
62 231 85 252 48 44 31 -50 -30 -160 -28 -51 -105 -370 -113 -469 -4 -48 -12
-64 -24 -52 -4 3 1 48 11 99 10 50 20 106 23 122 6 29 6 30 -14 13 -11 -10
-27 -18 -36 -18 -20 0 -47 37 -47 65 0 17 -4 16 -31 -12 -33 -37 -49 -42 -49
-16 0 13 -9 8 -35 -17 -29 -28 -39 -32 -53 -24 -9 6 -18 20 -20 30 -2 10 -5
25 -8 33 -8 24 -35 -9 -74 -93 -21 -43 -40 -74 -43 -69 -3 5 2 46 12 92 l18
82 -36 -34 c-32 -31 -71 -57 -85 -57 -17 0 -36 37 -36 71 0 64 56 169 81 153
19 -11 8 -41 -26 -74 -32 -31 -36 -40 -33 -79 2 -26 9 -46 16 -49 8 -2 40 22
71 55 57 58 58 59 90 187 34 139 53 190 78 218 21 23 36 12 28 -21z m651 -5
c-4 -17 -24 -67 -46 -111 -31 -61 -49 -122 -80 -261 -22 -100 -41 -202 -43
-228 -4 -48 -12 -65 -24 -52 -4 4 4 65 18 136 l26 129 -23 -24 c-13 -14 -32
-25 -42 -25 -19 0 -42 37 -42 67 0 12 -10 8 -35 -17 -27 -26 -38 -31 -47 -22
-23 23 32 142 66 142 7 0 21 -7 32 -15 18 -15 18 -15 -10 -13 -30 3 -58 -24
-71 -69 -9 -34 7 -28 34 12 13 19 27 35 31 35 5 0 11 -17 15 -38 8 -49 19 -66
38 -59 30 11 71 100 98 216 33 137 54 198 76 223 22 24 36 12 29 -26z m-1645
-265 c-5 -9 -18 -25 -29 -37 -29 -31 -42 -59 -42 -94 0 -61 55 -42 115 39 29
39 45 51 45 32 0 -16 -93 -113 -118 -122 -27 -10 -62 11 -62 38 0 10 -5 11
-19 4 -23 -13 -43 2 -61 47 -7 17 -16 32 -21 32 -4 0 -22 -29 -39 -65 -17 -36
-34 -65 -37 -65 -3 0 -3 18 0 41 l5 41 -21 -20 c-12 -11 -33 -25 -46 -32 -35
-18 -55 10 -46 65 10 63 28 71 20 9 -4 -33 -3 -54 4 -58 16 -10 88 61 107 104
19 43 39 45 23 3 -11 -31 -7 -39 11 -18 22 26 40 17 61 -31 19 -45 20 -46 39
-29 10 9 26 38 34 63 20 58 54 96 72 81 9 -7 11 -17 5 -28z m-336 -1 c-3 -5
-10 -10 -16 -10 -5 0 -9 5 -9 10 0 6 7 10 16 10 8 0 12 -4 9 -10z m2165 -675
c0 -13 -177 -15 -1534 -15 -847 0 -1537 4 -1540 9 -3 4 -3 11 1 15 3 3 696 6
1540 6 1356 0 1533 -2 1533 -15z m-2601 -502 c0 -11 -3 -13 -6 -5 -9 23 -33
13 -33 -14 0 -19 4 -25 15 -20 9 3 15 0 15 -9 0 -9 -6 -12 -16 -8 -14 5 -16 1
-12 -20 4 -20 1 -27 -11 -27 -13 0 -16 11 -16 60 l0 60 33 0 c24 0 32 -4 31
-17z m83 -14 c-4 -24 -1 -30 9 -27 8 3 14 15 13 27 0 11 3 21 8 21 15 0 21
-30 8 -45 -10 -12 -9 -20 4 -40 13 -20 14 -25 2 -25 -7 0 -17 11 -20 25 -4 14
-11 25 -17 25 -7 0 -9 -11 -7 -25 4 -18 1 -25 -11 -25 -13 0 -16 11 -16 60 0
48 3 60 16 60 12 0 14 -8 11 -31z m169 21 c14 -8 19 -21 19 -48 0 -43 -14 -62
-45 -62 -12 0 -26 5 -33 12 -17 17 -15 74 4 92 18 19 28 20 55 6z m115 -30
c15 -22 29 -40 31 -40 3 0 3 18 1 40 -2 23 1 40 7 40 6 0 9 -24 6 -62 -3 -62
-3 -63 -20 -39 -9 14 -24 34 -33 45 -17 21 -17 20 -18 -16 0 -20 6 -39 13 -41
6 -3 3 -6 -8 -6 -18 -1 -20 5 -20 59 0 33 3 60 7 60 4 0 20 -18 34 -40z m183
23 c0 -11 -3 -13 -6 -5 -12 31 -25 8 -21 -43 2 -44 0 -55 -12 -55 -12 0 -14
11 -12 55 4 55 -3 66 -26 43 -7 -7 -12 -8 -12 -2 0 18 12 24 52 24 30 0 38 -4
37 -17z m120 0 c0 -11 -3 -13 -6 -5 -9 23 -33 13 -33 -14 0 -19 4 -25 15 -20
9 3 15 0 15 -9 0 -9 -6 -12 -15 -9 -10 4 -15 0 -15 -15 0 -23 19 -28 39 -8 11
10 13 9 9 -3 -3 -9 -19 -16 -39 -18 l-34 -3 0 61 0 60 33 0 c24 0 32 -4 31
-17z m102 -25 l31 -43 -4 43 c-2 24 1 42 7 42 6 0 9 -24 6 -62 -3 -57 -4 -61
-17 -43 -48 65 -45 63 -41 23 2 -29 -1 -38 -13 -38 -12 0 -15 12 -15 60 0 33
3 60 7 60 5 0 22 -19 39 -42z m162 33 c57 -22 37 -111 -26 -111 l-32 0 0 60
c0 65 6 70 58 51z m210 0 c57 -22 37 -111 -26 -111 l-32 0 0 60 c0 65 6 70 58
51z m155 -11 c4 -12 2 -13 -9 -2 -21 20 -39 14 -39 -14 0 -19 4 -25 15 -20 8
3 15 1 15 -4 0 -6 -7 -10 -15 -10 -8 0 -15 -9 -15 -20 0 -22 35 -28 43 -7 3 7
6 5 6 -5 1 -14 -7 -18 -36 -18 l-38 0 0 60 0 61 34 -3 c20 -2 36 -9 39 -18z
m76 -20 c3 -22 10 -40 15 -40 12 0 25 56 16 70 -3 5 1 10 9 10 19 0 19 4 0
-56 -23 -69 -29 -72 -47 -22 -8 24 -18 51 -22 61 -5 11 -2 17 8 17 9 0 17 -14
21 -40z m176 31 c0 -5 -9 -7 -20 -4 -16 4 -20 0 -20 -22 0 -20 4 -26 15 -21 8
3 15 1 15 -4 0 -6 -7 -10 -15 -10 -8 0 -15 -9 -15 -20 0 -22 35 -28 43 -7 3 7
6 5 6 -5 1 -14 -7 -18 -36 -18 l-38 0 0 60 0 60 33 0 c17 0 32 -4 32 -9z m82
-46 c-4 -50 -3 -55 16 -55 11 0 23 6 25 13 3 7 6 5 6 -5 1 -15 -7 -18 -41 -17
-24 0 -37 3 -30 6 16 6 16 85 0 101 -9 9 -7 12 8 12 19 0 20 -5 16 -55z m162
39 c19 -18 21 -75 4 -92 -7 -7 -21 -12 -33 -12 -31 0 -45 19 -45 62 0 52 41
76 74 42z m131 0 c20 -20 15 -36 -14 -49 -16 -7 -21 -16 -18 -32 3 -16 -1 -23
-12 -23 -13 0 -16 11 -16 60 0 55 2 60 22 60 12 0 29 -7 38 -16z m125 7 c0 -5
-9 -7 -20 -4 -16 4 -20 0 -20 -22 0 -20 4 -26 15 -21 8 3 15 1 15 -4 0 -6 -7
-10 -15 -10 -8 0 -15 -9 -15 -20 0 -22 35 -28 43 -7 3 7 6 5 6 -5 1 -14 -7
-18 -36 -18 l-38 0 0 60 0 60 33 0 c17 0 32 -4 32 -9z m93 2 c-7 -2 -13 -16
-13 -30 0 -18 5 -24 18 -21 10 2 17 12 16 26 0 12 3 22 7 22 5 0 8 -20 7 -46
-2 -30 2 -48 12 -54 13 -8 12 -10 -2 -10 -11 0 -20 10 -24 25 -3 14 -12 25
-20 25 -17 0 -19 -36 -1 -43 6 -3 -1 -5 -18 -5 -16 0 -24 2 -17 5 16 6 16 85
0 101 -9 9 -5 12 18 11 16 0 23 -3 17 -6z"/>
<path d="M2430 3665 c0 -29 3 -36 18 -33 11 2 17 13 17 33 0 20 -6 31 -17 33
-15 3 -18 -4 -18 -33z"/>
<path d="M2644 3676 c-7 -29 1 -46 22 -46 9 0 14 11 14 35 0 41 -26 49 -36 11z"/>
<path d="M2625 2818 c-2 -7 -15 -68 -28 -134 l-24 -122 51 24 c28 13 66 24 83
24 27 0 37 7 58 39 37 55 42 99 15 133 -31 40 -145 66 -155 36z"/>
<path d="M2640 2574 c-19 -8 -45 -25 -57 -36 -23 -21 -31 -48 -15 -48 12 0
128 76 136 89 10 16 -22 13 -64 -5z"/>
<path d="M1649 2780 c-15 -25 -56 -105 -93 -177 l-66 -133 58 0 58 0 38 159
c43 182 44 219 5 151z"/>
<path d="M1861 2749 c-6 -18 -9 -34 -7 -36 2 -2 9 10 15 28 6 18 9 34 7 36 -2
2 -9 -10 -15 -28z"/>
<path d="M3559 2764 c-5 -15 -8 -29 -5 -31 2 -2 8 10 14 26 13 38 5 41 -9 5z"/>
<path d="M3161 2749 c-6 -18 -9 -34 -7 -36 2 -2 9 10 15 28 6 18 9 34 7 36 -2
2 -9 -10 -15 -28z"/>
<path d="M3819 2764 c-5 -15 -8 -29 -5 -31 2 -2 8 10 14 26 13 38 5 41 -9 5z"/>
<path d="M1644 1336 c-3 -8 -4 -29 -2 -48 2 -25 8 -34 25 -36 16 -2 23 3 28
27 3 16 1 39 -5 50 -12 24 -38 28 -46 7z"/>
<path d="M2340 1300 c0 -34 4 -50 13 -50 35 0 50 56 21 84 -26 26 -34 18 -34
-34z"/>
<path d="M2550 1300 c0 -34 4 -50 13 -50 35 0 50 56 21 84 -26 26 -34 18 -34
-34z"/>
<path d="M3180 1326 c-13 -35 4 -79 28 -74 13 3 17 13 17 48 0 35 -4 45 -17
48 -12 2 -21 -6 -28 -22z"/>
<path d="M3330 1325 c0 -17 5 -25 13 -22 6 2 12 12 12 22 0 10 -6 20 -12 23
-8 2 -13 -6 -13 -23z"/>
</g>
</svg>
